<?xml version="1.0" standalone="no"?>
<!DOCTYPE svg PUBLIC "-//W3C//DTD SVG 20010904//EN"
 "http://www.w3.org/TR/2001/REC-SVG-20010904/DTD/svg10.dtd">
<svg version="1.0" xmlns="http://www.w3.org/2000/svg"
 width="512.000000pt" height="512.000000pt" viewBox="0 0 512.000000 512.000000"
 preserveAspectRatio="xMidYMid meet">
<metadata>
Created by potrace 1.14, written by Peter Selinger 2001-2017
</metadata>
<g transform="translate(0.000000,512.000000) scale(0.100000,-0.100000)"
fill="#000000" stroke="none">
<path d="M2517 4380 c-7 -19 -97 -310 -102 -330 -2 -8 -45 -148 -95 -310 -51
-162 -93 -302 -95 -310 -2 -8 -13 -42 -25 -75 -11 -33 -21 -62 -21 -65 1 -4
-39 -135 -80 -265 l-9 -30 -188 1 c-103 2 -351 5 -552 8 -576 8 -720 9 -725 4
-3 -2 25 -24 61 -48 35 -23 81 -56 101 -71 20 -16 42 -29 49 -29 8 0 14 -4 14
-9 0 -4 30 -29 67 -54 38 -25 111 -75 163 -112 52 -36 127 -87 165 -113 39
-26 72 -50 75 -53 3 -3 30 -22 60 -42 30 -20 60 -41 65 -45 6 -4 62 -44 125
-87 63 -44 147 -102 186 -130 l70 -51 -49 -134 c-27 -74 -53 -148 -57 -165 -5
-16 -28 -82 -51 -145 -46 -130 -84 -237 -163 -460 -30 -85 -79 -227 -110 -314
-31 -87 -56 -161 -56 -163 0 -4 87 56 114 78 6 5 76 57 156 116 80 59 147 110
148 115 2 4 10 8 18 8 8 0 14 4 14 8 0 5 8 13 19 18 10 5 32 19 47 32 16 12
146 108 289 213 143 105 286 211 318 235 l58 44 43 -32 c24 -18 54 -40 66 -48
12 -8 31 -23 43 -32 12 -10 83 -62 157 -117 74 -55 140 -104 145 -108 6 -4 30
-21 55 -38 24 -16 52 -37 61 -45 42 -39 412 -305 421 -302 5 1 8 -1 5 -5 -2
-5 41 -41 96 -82 58 -42 97 -65 93 -55 -4 11 -9 26 -11 34 -3 12 -278 825
-298 880 -3 8 -38 112 -78 230 -39 118 -74 220 -76 225 -3 10 15 24 263 198
73 51 142 100 155 109 44 33 323 228 422 295 53 36 97 70 97 75 0 5 5 6 10 3
6 -3 10 -2 10 3 0 5 10 14 23 19 12 6 31 18 42 27 11 9 56 42 100 72 l80 56
-305 -7 c-168 -3 -431 -8 -585 -11 -154 -2 -353 -6 -441 -8 l-162 -4 -47 159
c-27 87 -52 159 -57 159 -5 0 -6 5 -3 10 4 6 -7 52 -23 103 -16 50 -41 130
-56 177 -14 47 -55 182 -92 300 -36 118 -70 231 -76 250 -5 19 -16 55 -25 80
-8 25 -16 52 -19 60 -19 77 -32 113 -37 100z"/>
<path d="M417 2785 l-17 -51 -45 2 c-25 1 -45 -1 -45 -4 0 -4 16 -18 35 -31
40 -27 40 -27 20 -74 -21 -51 -20 -52 26 -18 l42 30 31 -23 c55 -40 56 -40 39
10 -18 52 -18 52 48 95 l24 16 -30 1 c-83 0 -81 -1 -96 50 l-15 47 -17 -50z"/>
</g>
</svg>
